<?xml version="1.0" standalone="no"?>
<!DOCTYPE svg PUBLIC "-//W3C//DTD SVG 20010904//EN"
 "http://www.w3.org/TR/2001/REC-SVG-20010904/DTD/svg10.dtd">
<svg version="1.0" xmlns="http://www.w3.org/2000/svg"
 width="48.000000pt" height="59.000000pt" viewBox="0 0 48.000000 59.000000"
 preserveAspectRatio="xMidYMid meet">

<g transform="translate(0.000000,59.000000) scale(0.100000,-0.100000)"
fill="#000000" stroke="none">
<path d="M70 511 c-15 -29 -13 -394 2 -409 8 -8 60 -12 170 -12 145 0 158 1
168 19 5 11 10 80 10 153 l0 134 -68 67 -68 67 -101 0 c-91 0 -103 -2 -113
-19z m220 -66 l0 -45 45 0 45 0 0 -135 0 -135 -140 0 -140 0 0 180 0 180 95 0
95 0 0 -45z"/>
<path d="M166 398 c-21 -30 -22 -158 -1 -197 30 -59 120 -59 150 0 8 15 15 51
15 79 0 43 -3 50 -20 50 -17 0 -20 -7 -20 -46 0 -25 -5 -54 -10 -65 -15 -26
-66 -26 -80 1 -15 28 -9 152 8 158 9 3 12 -15 12 -67 0 -64 2 -71 20 -71 18 0
20 7 20 73 0 59 -4 77 -18 90 -26 23 -58 21 -76 -5z"/>
</g>
</svg>
